<svg width="24" height="20" viewBox="0 0 24 20" fill="none" xmlns="http://www.w3.org/2000/svg">
    <path
        d="M2.25 15.25C0.984375 15.25 0 16.2812 0 17.5C0 18.7656 0.984375 19.75 2.25 19.75C3.46875 19.75 4.5 18.7656 4.5 17.5C4.5 16.2812 3.46875 15.25 2.25 15.25ZM2.25 7.75C0.984375 7.75 0 8.78125 0 10C0 11.2656 0.984375 12.25 2.25 12.25C3.46875 12.25 4.5 11.2656 4.5 10C4.5 8.78125 3.46875 7.75 2.25 7.75ZM2.25 0.25C0.984375 0.25 0 1.28125 0 2.5C0 3.76562 0.984375 4.75 2.25 4.75C3.46875 4.75 4.5 3.76562 4.5 2.5C4.5 1.28125 3.46875 0.25 2.25 0.25ZM23.25 1.375H8.25C7.82812 1.375 7.5 1.75 7.5 2.125V2.875C7.5 3.29688 7.82812 3.625 8.25 3.625H23.25C23.625 3.625 24 3.29688 24 2.875V2.125C24 1.75 23.625 1.375 23.25 1.375ZM23.25 8.875H8.25C7.82812 8.875 7.5 9.25 7.5 9.625V10.375C7.5 10.7969 7.82812 11.125 8.25 11.125H23.25C23.625 11.125 24 10.7969 24 10.375V9.625C24 9.25 23.625 8.875 23.25 8.875ZM23.25 16.375H8.25C7.82812 16.375 7.5 16.75 7.5 17.125V17.875C7.5 18.2969 7.82812 18.625 8.25 18.625H23.25C23.625 18.625 24 18.2969 24 17.875V17.125C24 16.75 23.625 16.375 23.25 16.375Z"
        fill="#0098BC" />
</svg>
